<?xml version="1.0" encoding="utf-8"?>
<!-- Generator: Adobe Illustrator 16.0.4, SVG Export Plug-In . SVG Version: 6.00 Build 0)  -->
<!DOCTYPE svg PUBLIC "-//W3C//DTD SVG 1.1//EN" "http://www.w3.org/Graphics/SVG/1.1/DTD/svg11.dtd">
<svg version="1.1" id="Stander" xmlns="http://www.w3.org/2000/svg" xmlns:xlink="http://www.w3.org/1999/xlink" x="0px" y="0px"
	 width="143.4297px" height="86.7402px" viewBox="0 0 143.4297 86.7402" style="enable-background:new 0 0 143.4297 86.7402;"
	 xml:space="preserve">
<style type="text/css">
<![CDATA[
	.st0{fill-rule:evenodd;clip-rule:evenodd;}
	.st1{fill-rule:evenodd;clip-rule:evenodd;fill:#FF0000;}
	.st2{fill-rule:evenodd;clip-rule:evenodd;fill:#FFFFFF;}
]]>
</style>
<path id="Flagge_weiß" class="st2" d="M77.7842,18.9263c-13.4844-6.8101-22.0322-2.5298-22.0322-2.5298
	s1.9805,9.4155,1.1855,13.8086c-1.8281,10.1025-4.2158,13.7319-12.7544,21.5195c-0.2451,0.9961-0.98,3.3584-1.103,4.3535
	c13.98-1.3682,24.71-1.0576,35.502,2.3018c4.8643,1.5137,15.1074,3.7764,21.7666,5.4932
	c13.0586,3.3672,29.3008,0.2988,39.1201-8.209c-15.5342-6.3027-29.9219-14.1392-36.0537-18.7422
	C101.2207,35.2744,80.2568,20.1743,77.7842,18.9263L77.7842,18.9263z"/>
<path id="Flagge_rot" class="st1" d="M100.4717,63.252c-6.6611-1.7178-21.6445-5.6182-21.6445-5.6182l1.8389-5.6611
	c0,0,3.7168,1.1963,6.9922-0.7461c3.416-2.0283,4.4746-4.9756,4.4746-4.9756s5.1885,2.5225,18.5576,6.4697
	c8.7256,2.5752,20.1123,3.4814,27.3057,3.0674C125.5713,65.7402,108.5742,65.3408,100.4717,63.252L100.4717,63.252z M80.1953,33.729
	c-3.6689,1.439-5.6396,5.3071-5.6396,5.3071s-4.4141-2.8223-8.4214-3.5654c-6.1089-1.1333-9.4829,0.332-9.4829,0.332
	s1.6348-5.7227,1.3896-9.9517c-0.2451-4.2295-1.3081-8.7085-1.3081-8.7085s7.1992-4.4043,20.6831,2.4053
	c1.7031,0.8599,13.1641,8.8735,13.1641,8.8735l-2.7803,6.0542C87.7998,34.4756,84.1162,32.1924,80.1953,33.729L80.1953,33.729z"/>
<path id="SKGB-Stander_schwarz" class="st0" d="M0.0244,81.1865c0,0-0.7568,5.5547,6.1172,5.5547
	c6.5781,0,7.6196-2.5273,7.5454-4.7734c-0.1338-4.0605-5.6733-3.9697-5.7358-5.873c-0.0264-0.8037,0.4517-0.9424,0.9009-0.9424
	c1.7852,0,1.52,1.9521,1.52,1.9521h4.7573c0,0,0.5176-5.248-6.2822-5.248c-5.6929,0-6.5342,3.3428-6.4927,4.5967
	c0.1245,3.7832,5.4355,4.1855,5.5005,6.166c0.0322,0.9795-0.5186,1.1367-1.2539,1.1367c-1.6802,0-1.6367-2.5527-1.6367-2.5527
	L0.0244,81.1865L0.0244,81.1865z M18.8091,72.167l-4.0249,14.2637h5.0571l1.8911-6.8252l2.3193,6.8252h5.1147l-2.2793-6.7002
	l6.3506-7.5635h-6.3003l-4.686,5.5977l1.5435-5.5977H18.8091L18.8091,72.167z M54.2329,80.0342l-1.041,3.6895h3.5
	c0,0,0.7988,0.0117,1.2041-1.4277c0.6406-2.2754-0.8647-2.2617-0.8647-2.2617H54.2329L54.2329,80.0342z M55.6553,75.0176
	l-0.8901,3.124h3.3442c0,0,0.9146,0.0312,1.3042-1.3086c0.5278-1.8154-0.9429-1.8154-0.9429-1.8154H55.6553L55.6553,75.0176z
	 M51.3916,72.167l-4.0269,14.2637H58.688c0,0,3.3687-0.0117,4.3154-3.3203c0.6206-2.1729-1.561-3.5703-1.561-3.5703
	s1.9136-0.4873,2.3892-2.1729c1.4697-5.2002-2.2607-5.2002-2.2607-5.2002H51.3916L51.3916,72.167z M38.6704,58.2334l-1.2139,4.2988
	c0,0-1.8921-0.3789-3.188-1.1592c-0.9141-0.5518-1.0947-1.3809,1.1924-2.3516C37.4849,58.1611,38.6704,58.2334,38.6704,58.2334
	L38.6704,58.2334z M54.7964,20.3223l-7.5747,26.8887c0,0,1.4448-1.0381,3.9556-4.9492c2.252-3.5078,4.3472-7.7534,4.3877-14.3423
	C55.6001,22.3516,54.7964,20.3223,54.7964,20.3223L54.7964,20.3223z M53.0283,7.4092c-0.9331-1.0874-1.3423-2.5835-0.9668-4.0557
	c0.6143-2.4087,3.0957-3.8413,5.542-3.1992c2.4468,0.6421,3.9321,3.1152,3.3179,5.5234c-0.3848,1.5103-1.5034,2.6367-2.8872,3.1089
	c-0.0884,0.2808-0.1157,0.395-0.1157,0.395l-1.5947,5.7319c0,0,3.2856-1.2856,6.7461-1.2856c5.29,0,12.4946,1.373,21.1499,7.7861
	c1.7764,1.3169,18.8496,13.5015,20.4922,14.7085c1.8027,1.3276,8.3838,5.1577,10.2793,6.1294
	c21.4375,10.9902,21.2969,10.4785,28.4414,12.666c-1.873,1.3438-12.9658,11.3184-31.2715,11.3184
	c-6.6182,0-15.1973-1.8477-24.5244-4.1455C73.0557,58.499,67.4517,56.752,54.6895,56.752c-4.793,0-10.4429,0.8818-10.4429,0.8818
	l-1.7642,6.3926c0,0,2.3042,0.3623,3.8716,2c3.4141,3.5703,1.2749,8.3174-2.7456,9.1094c0.6021-1.3662,1.2051-4.0703-0.0229-6.0127
	c-0.8086-1.2803-2.2319-1.2139-2.2319-1.2139s-3.7329,13.3291-3.9165,13.9922c-0.1841,0.6631-0.0991,1.8467,1.4736,1.8467
	c1.6753,0,2.4526-1.8584,2.4526-1.8584l-1.9619-0.4971l0.6743-2.6123l7.1128,0.1865l-2.0239,7.4766h-2.084l-0.123-2.0654
	c0,0-1.5942,2.252-6.5,2.252c-4.2017,0-4.522-4.5713-4.1597-5.8916c0.1426-0.5186,4.0605-14.335,4.0605-14.335
	s-8.7139-2.666-7.6396-6.5059c1.4653-5.2373,11.0825-5.6836,11.0825-5.6836L52.9365,7.7515
	C52.9365,7.7515,52.9629,7.6655,53.0283,7.4092L53.0283,7.4092z M96.4258,60.8057c-2.3057-0.6025-16.9756-4.2393-19.7451-4.9766
	c-4.4585-1.1855-15.3145-2.7568-21.4673-2.7568c-4.6143,0-8.1626,0.4746-9.854,0.7207c0.2222-0.8213,0.0854-0.3271,0.3086-1.1914
	c0.5972-0.2959,9.6157-6.8945,12.373-17.2349c2.2993-8.6211,0.1836-16.1714,0-17.4771c1.5942-0.7471,11.0757-3.0449,25.0791,6.9038
	c2.1504,1.5278,19.7695,14.0352,21.7539,15.4443c2.1924,1.5542,7.1719,4.3228,9.4541,5.4546
	c17.5957,8.7217,20.3975,9.7852,21.6865,10.1582C121.5039,65.4082,106.7256,63.4971,96.4258,60.8057L96.4258,60.8057z"/>
<path id="SKGB-Emblem_schwarz_1_" class="st0" d="M83.2734,32.1245c-5.8613,0-10.6138,4.752-10.6138,10.6138
	c0,5.8613,4.7524,10.6133,10.6138,10.6133s10.6133-4.752,10.6133-10.6133C93.8867,36.8765,89.1348,32.1245,83.2734,32.1245
	L83.2734,32.1245z M83.2959,50.2783c-4.1582,0-7.5283-3.373-7.5283-7.5303c0-4.1582,3.3701-7.5293,7.5283-7.5293
	c4.1592,0,7.5312,3.3711,7.5312,7.5293C90.8271,46.9053,87.4551,50.2783,83.2959,50.2783L83.2959,50.2783z M89.3779,45.1523
	c0-0.3379-0.0996-0.2744-1.8584-0.3516c-1.54-3.1997-4.0527-4.4517-4.5693-6.2031c0.7295-1.0117,1.4561-0.3452,1.3926-0.9849
	c-0.0264-0.2739-0.3936-0.3193-1.3467-0.2749c-1.2324,0.0576-1.4736,0.0933-1.9121,0.9668c-0.21,0.4219-1.9004,3.6782-2.1484,4.1943
	c-0.4424-0.0669-1.7686-0.3213-2.2852-0.25c0.0781,0.8701,0.8975,2.8066,1.8252,3.2988c-0.1084,0.4307-0.373,0.1162-0.5449,0.8809
	c-0.1865,0.8271,0.0342,0.9951,0.5625,1.2021c0.4404,0.1709,0.9014-0.0859,1.125-0.7109c0.3389-0.9473-0.1123-0.877-0.042-1.291
	c0.2773,0,8.8184,0.001,9.127,0.001C89.3223,45.6299,89.3779,45.6064,89.3779,45.1523L89.3779,45.1523z M84.2803,43.2837
	c0.0342-0.0801,0.1172-0.1606,0.1895-0.1855l0.7812-0.2783c0.1338-0.0469,0.2734-0.02,0.3037,0.0776l0.1895,0.6104
	c0.0732,0.2319-0.1035,0.4595-0.3672,0.4595h-1.2324c-0.0947,0-0.1113-0.1211-0.0518-0.2549L84.2803,43.2837L84.2803,43.2837z
	 M78.6963,47.0117c-0.1416-0.0488-0.1973-0.2607-0.125-0.4766c0.0752-0.2139,0.249-0.3496,0.3887-0.3008
	c0.1416,0.0488,0.1973,0.2617,0.125,0.4766C79.0117,46.9248,78.8379,47.0605,78.6963,47.0117L78.6963,47.0117z"/>
</svg>
